<?xml version="1.0" encoding="utf-8"?>
<svg version="1.1" xmlns="http://www.w3.org/2000/svg" width="417px" height="79px" x="0px" y="0px" viewBox="0 0 417 79">
<path stroke="#000000" d="M30,0L33,4M28,4L32,9M27,8L30,13M25,13L28,18M23,18L26,23M21,23L24,27M19,27L23,32M18,32L21,37M16,36L19,41M14,41L17,46M12,46L15,50M10,51L14,55M9,55L12,60M7,60L10,65M5,65L8,69M3,69L6,74M1,74L4,79M35,0L38,4M33,4L37,9M32,9L35,13M30,13L33,18M28,18L31,23M26,23L29,27M24,27L28,32M23,32L26,37M21,37L24,41M19,41L22,46M17,46L20,50M15,50L19,55M14,55L17,60M12,60L15,65M10,65L13,69M8,69L11,74M6,74L9,78M40,0L43,4M38,4L42,9M37,9L40,13M35,13L38,18M33,18L36,23M31,23L34,27M29,27L33,27M28,32L31,32M26,37L29,36M24,41L27,41M22,46L25,46M20,50L24,50M19,55L22,55M17,60L20,65M15,65L18,69M13,69L16,74M11,74L14,78M45,0L48,4M43,4L47,8M42,9L45,13M40,13L43,18M38,18L41,22M36,23L39,22M34,27L38,27M33,27L36,32M31,32L34,36M29,36L32,41M27,41L30,46M25,46L29,50M24,50L27,55M22,55L25,65M20,65L23,69M18,69L21,74M16,74L19,78M50,0L53,4M48,4L52,9M47,8L50,13M45,13L48,18M43,18L46,18M41,22L44,22M39,22L43,32M38,27L41,37M36,32L39,41M34,36L37,41M32,41L35,50M30,46L34,55M29,50L32,60M27,55L30,64M25,65L28,69M23,69L26,74M21,74L24,78M55,0L58,4M53,4L57,8M52,9L55,13M50,13L53,13M48,18L51,18M46,18L49,27M44,22L48,32M43,32L46,37M41,37L44,41M39,41L42,41M37,41L40,51M35,50L39,55M34,55L37,60M32,60L35,64M30,64L33,69M28,69L31,74M26,74L29,79M60,0L63,4M58,4L62,9M57,8L60,13M55,13L58,13M53,13L56,18M51,18L54,27M49,27L53,32M48,32L51,36M46,37L49,41M44,41L47,41M42,41L45,50M40,51L44,55M39,55L42,60M37,60L40,64M35,64L38,69M33,69L36,74M31,74L35,78M65,0L68,4M63,4L67,9M62,9L65,13M60,13L63,18M58,13L61,17M56,18L59,22M54,27L58,32M53,32L56,36M51,36L54,41M49,41L52,41M47,41L50,51M45,50L49,55M44,55L47,60M42,60L45,64M40,64L43,69M38,69L41,74M36,74L40,79M70,0L73,4M68,4L72,9M67,9L70,13M65,13L68,18M63,18L66,23M61,17L64,22M59,22L63,27M58,32L61,32M56,36L59,36M54,41L57,41M52,41L55,45M50,51L54,50M49,55L52,55M47,60L50,65M45,64L48,69M43,69L46,74M41,74L45,78M75,0L78,4M73,4L77,8M72,9L75,13M70,13L73,18M68,18L71,22M66,23L69,27M64,22L68,27M63,27L66,32M61,32L64,36M59,36L62,41M57,41L60,46M55,45L59,50M54,50L57,55M52,55L55,64M50,65L53,69M48,69L51,74M46,74L50,78M80,0L83,4M78,4L82,8M77,8L80,13M75,13L78,18M73,18L76,23M71,22L74,27M69,27L73,32M68,27L71,37M66,32L69,41M64,36L67,46M62,41L65,51M60,46L64,55M59,50L62,60M57,55L60,65M55,64L58,69M53,69L56,74M51,74L55,78M85,0L88,4M83,4L87,9M82,8L85,13M80,13L83,13M78,18L81,17M76,23L79,22M74,27L78,27M73,32L76,31M71,37L74,36M69,41L72,41M67,46L70,46M65,51L69,50M64,55L67,55M62,60L65,64M60,65L63,69M58,69L61,74M56,74L60,78M90,0L93,4M88,4L92,9M87,9L90,13M85,13L88,13M83,13L86,17M81,17L84,22M79,22L83,27M78,27L81,32M76,31L79,36M74,36L77,41M72,41L75,46M70,46L74,50M69,50L72,55M67,55L70,64M65,64L68,69M63,69L66,74M61,74L65,79M95,0L98,4M93,4L97,9M92,9L95,13M90,13L93,13M88,13L91,22M86,17L89,27M84,22L88,32M83,27L86,32M81,32L84,41M79,36L82,46M77,41L80,51M75,46L79,55M74,50L77,55M72,55L75,64M70,64L73,69M68,69L71,74M66,74L70,79M100,0L103,4M98,4L102,9M97,9L100,13M95,13L98,13M93,13L96,22M91,22L94,27M89,27L93,32M88,32L91,31M86,32L89,41M84,41L87,46M82,46L85,50M80,51L84,55M79,55L82,55M77,55L80,64M75,64L78,69M73,69L76,74M71,74L75,79M105,0L108,4M103,4L107,9M102,9L105,13M100,13L103,13M98,13L101,23M96,22L99,27M94,27L98,32M93,32L96,31M91,31L94,41M89,41L92,46M87,46L90,50M85,50L89,55M84,55L87,55M82,55L85,65M80,64L83,69M78,69L81,74M76,74L80,79M110,0L113,4M108,4L112,9M107,9L110,13M105,13L108,13M103,13L106,18M101,23L104,27M99,27L103,27M98,32L101,32M96,31L99,36M94,41L97,46M92,46L95,50M90,50L94,50M89,55L92,55M87,55L90,65M85,65L88,69M83,69L86,74M81,74L85,79M115,0L118,4M113,4L117,8M112,9L115,13M110,13L113,18M108,13L111,17M106,18L109,22M104,27L108,27M103,27L106,36M101,32L104,36M99,36L102,41M97,46L100,45M95,50L99,50M94,50L97,60M92,55L95,64M90,65L93,69M88,69L91,74M86,74L90,79M120,0L123,4M118,4L122,9M117,8L120,13M115,13L118,18M113,18L116,22M111,17L114,22M109,22L113,32M108,27L111,37M106,36L109,41M104,36L107,41M102,41L105,45M100,45L104,55M99,50L102,60M97,60L100,65M95,64L98,69M93,69L96,74M91,74L94,78M125,0L128,4M123,4L127,9M122,9L125,13M120,13L123,18M118,18L121,23M116,22L119,27M114,22L118,32M113,32L116,37M111,37L114,41M109,41L112,46M107,41L110,50M105,45L109,55M104,55L107,60M102,60L105,64M100,65L103,69M98,69L101,74M96,74L99,79M130,0L133,4M128,4L132,9M127,9L130,13M125,13L128,18M123,18L126,23M121,23L124,22M119,27L123,27M118,32L121,32M116,37L119,36M114,41L117,41M112,46L115,45M110,50L114,55M109,55L112,60M107,60L110,64M105,64L108,69M103,69L106,74M101,74L104,79M135,0L138,4M133,4L137,8M132,9L135,13M130,13L133,18M128,18L131,18M126,23L129,22M124,22L128,27M123,27L126,32M121,32L124,36M119,36L122,41M117,41L120,45M115,45L119,50M114,55L117,60M112,60L115,64M110,64L113,69M108,69L111,74M106,74L109,79M140,0L143,4M138,4L142,8M137,8L140,13M135,13L138,13M133,18L136,17M131,18L134,27M129,22L133,32M128,27L131,37M126,32L129,41M124,36L127,46M122,41L125,51M120,45L124,50M119,50L122,55M117,60L120,64M115,64L118,69M113,69L116,74M111,74L114,78M145,0L148,4M143,4L147,9M142,8L145,13M140,13L143,13M138,13L141,22M136,17L139,27M134,27L138,32M133,32L136,36M131,37L134,41M129,41L132,46M127,46L130,51M125,51L129,55M124,50L127,55M122,55L125,65M120,64L123,69M118,69L121,74M116,74L119,79M150,0L153,4M148,4L152,9M147,9L150,13M145,13L148,13M143,13L146,23M141,22L144,27M139,27L143,32M138,32L141,36M136,36L139,41M134,41L137,46M132,46L135,50M130,51L134,55M129,55L132,55M127,55L130,65M125,65L128,69M123,69L126,74M121,74L124,79M155,0L158,4M153,4L157,8M152,9L155,13M150,13L153,13M148,13L151,23M146,23L149,27M144,27L148,32M143,32L146,36M141,36L144,41M139,41L142,46M137,46L140,51M135,50L139,55M134,55L137,55M132,55L135,64M130,65L133,69M128,69L131,74M126,74L130,78M160,0L163,4M158,4L162,9M157,8L160,13M155,13L158,13M153,13L156,17M151,23L154,27M149,27L153,32M148,32L151,37M146,36L149,41M144,41L147,46M142,46L145,50M140,51L144,50M139,55L142,55M137,55L140,65M135,64L138,69M133,69L136,74M131,74L135,78M165,0L168,4M163,4L167,8M162,9L165,13M160,13L163,18M158,13L161,18M156,17L159,22M154,27L158,32M153,32L156,37M151,37L154,41M149,41L152,46M147,46L150,46M145,50L149,50M144,50L147,60M142,55L145,65M140,65L143,69M138,69L141,74M136,74L140,78M170,0L173,4M168,4L172,8M167,8L170,13M165,13L168,18M163,18L166,22M161,18L164,27M159,22L163,32M158,32L161,36M156,37L159,41M154,41L157,46M152,46L155,51M150,46L154,55M149,50L152,60M147,60L150,65M145,65L148,69M143,69L146,74M141,74L145,79M175,0L178,4M173,4L177,8M172,8L175,13M170,13L173,13M168,18L171,18M166,22L169,22M164,27L168,27M163,32L166,31M161,36L164,36M159,41L162,41M157,46L160,45M155,51L159,50M154,55L157,55M152,60L155,64M150,65L153,69M148,69L151,74M146,74L150,79M180,0L183,4M178,4L182,9M177,8L180,13M175,13L178,13M173,13L176,17M171,18L174,22M169,22L173,27M168,27L171,32M166,31L169,36M164,36L167,41M162,41L165,46M160,45L164,50M159,50L162,55M157,55L160,64M155,64L158,69M153,69L156,74M151,74L155,79M185,0L188,4M183,4L187,8M182,9L185,13M180,13L183,13M178,13L181,23M176,17L179,27M174,22L178,32M173,27L176,36M171,32L174,41M169,36L172,46M167,41L170,51M165,46L169,55M164,50L167,55M162,55L165,65M160,64L163,69M158,69L161,74M156,74L160,78M190,0L193,4M188,4L192,8M187,8L190,13M185,13L188,13M183,13L186,23M181,23L184,27M179,27L183,32M178,32L181,36M176,36L179,41M174,41L177,46M172,46L175,50M170,51L174,55M169,55L172,55M167,55L170,65M165,65L168,69M163,69L166,74M161,74L165,79M195,0L198,4M193,4L197,8M192,8L195,13M190,13L193,13M188,13L191,22M186,23L189,27M184,27L188,32M183,32L186,36M181,36L184,41M179,41L182,46M177,46L180,51M175,50L179,55M174,55L177,55M172,55L175,64M170,65L173,69M168,69L171,74M166,74L170,78M200,0L203,4M198,4L202,9M197,8L200,13M195,13L198,13M193,13L196,18M191,22L194,27M189,27L193,32M188,32L191,37M186,36L189,41M184,41L187,46M182,46L185,50M180,51L184,50M179,55L182,55M177,55L180,65M175,64L178,69M173,69L176,74M171,74L175,78M205,0L208,4M203,4L207,8M202,9L205,13M200,13L203,18M198,13L201,18M196,18L199,22M194,27L198,27M193,32L196,32M191,37L194,36M189,41L192,41M187,46L190,46M185,50L189,50M184,50L187,60M182,55L185,65M180,65L183,69M178,69L181,74M176,74L180,78M210,0L213,4M208,4L212,9M207,8L210,13M205,13L208,18M203,18L206,22M201,18L204,22M199,22L203,27M198,27L201,32M196,32L199,36M194,36L197,41M192,41L195,46M190,46L194,55M189,50L192,60M187,60L190,65M185,65L188,69M183,69L186,74M181,74L185,78M215,0L218,4M213,4L217,9M212,9L215,13M210,13L213,18M208,18L211,22M206,22L209,27M204,22L208,32M203,27L206,36M201,32L204,41M199,36L202,46M197,41L200,51M195,46L199,55M194,55L197,60M192,60L195,65M190,65L193,69M188,69L191,74M186,74L190,78M220,0L223,4M218,4L222,9M217,9L220,13M215,13L218,18M213,18L216,23M211,22L214,27M209,27L213,32M208,32L211,37M206,36L209,41M204,41L207,46M202,46L205,51M200,51L204,55M199,55L202,60M197,60L200,64M195,65L198,69M193,69L196,74M191,74L195,78M225,0L228,4M223,4L227,9M222,9L225,13M220,13L223,18M218,18L221,22M216,23L219,27M214,27L218,32M213,32L216,36M211,37L214,41M209,41L212,46M207,46L210,51M205,51L209,55M204,55L207,60M202,60L205,65M200,64L203,69M198,69L201,74M196,74L200,78M230,0L233,4M228,4L232,9M227,9L230,13M225,13L228,18M223,18L226,23M221,22L224,27M219,27L223,32M218,32L221,37M216,36L219,41M214,41L217,46M212,46L215,51M210,51L214,55M209,55L212,60M207,60L210,65M205,65L208,69M203,69L206,74M201,74L205,78M235,0L238,4M233,4L237,9M232,9L235,13M230,13L233,18M228,18L231,23M226,23L229,27M224,27L228,32M223,32L226,36M221,37L224,41M219,41L222,46M217,46L220,51M215,51L219,55M214,55L217,60M212,60L215,64M210,65L213,69M208,69L211,74M206,74L210,79M240,0L243,4M238,4L242,9M237,9L240,13M235,13L238,18M233,18L236,22M231,23L234,27M229,27L233,32M228,32L231,37M226,36L229,41M224,41L227,46M222,46L225,50M220,51L224,55M219,55L222,60M217,60L220,64M215,64L218,69M213,69L216,74M211,74L215,78M245,0L248,4M243,4L247,9M242,9L245,13M240,13L243,18M238,18L241,22M236,22L239,27M234,27L238,32M233,32L236,37M231,37L234,41M229,41L232,46M227,46L230,50M225,50L229,55M224,55L227,60M222,60L225,65M220,64L223,69M218,69L221,74M216,74L220,78M250,0L253,4M248,4L252,9M247,9L250,13M245,13L248,18M243,18L246,23M241,22L244,27M239,27L243,32M238,32L241,37M236,37L239,41M234,41L237,46M232,46L235,51M230,50L234,55M229,55L232,60M227,60L230,64M225,65L228,69M223,69L226,74M221,74L225,79M255,0L258,4M253,4L257,9M252,9L255,13M250,13L253,18M248,18L251,23M246,23L249,27M244,27L248,32M243,32L246,36M241,37L244,41M239,41L242,46M237,46L240,50M235,51L239,55M234,55L237,60M232,60L235,64M230,64L233,69M228,69L231,74M226,74L230,78M260,0L263,4M258,4L262,9M257,9L260,13M255,13L258,18M253,18L256,23M251,23L254,27M249,27L253,32M248,32L251,36M246,36L249,41M244,41L247,46M242,46L245,51M240,50L244,55M239,55L242,60M237,60L240,64M235,64L238,69M233,69L236,74M231,74L235,79M265,0L268,4M263,4L267,9M262,9L265,13M260,13L263,18M258,18L261,23M256,23L259,27M254,27L258,32M253,32L256,37M251,36L254,41M249,41L252,46M247,46L250,50M245,51L249,55M244,55L247,60M242,60L245,64M240,64L243,69M238,69L241,74M236,74L240,79M270,0L273,4M268,4L272,8M267,9L270,13M265,13L268,18M263,18L266,23M261,23L264,22M259,27L263,32M258,32L261,36M256,37L259,41M254,41L257,46M252,46L255,51M250,50L254,55M249,55L252,55M247,60L250,65M245,64L248,69M243,69L246,74M241,74L245,78M275,0L278,4M273,4L277,9M272,8L275,13M270,13L273,18M268,18L271,18M266,23L269,22M264,22L268,32M263,32L266,36M261,36L264,41M259,41L262,46M257,46L260,51M255,51L259,55M254,55L257,55M252,55L255,65M250,65L253,69M248,69L251,74M246,74L250,79M280,0L283,4M278,4L282,9M277,9L280,13M275,13L278,13M273,18L276,18M271,18L274,22M269,22L273,27M268,32L271,32M266,36L269,36M264,41L267,41M262,46L265,46M260,51L264,50M259,55L262,55M257,55L260,64M255,65L258,69M253,69L256,74M251,74L255,79M285,0L288,4M283,4L287,9M282,9L285,13M280,13L283,13M278,13L281,18M276,18L279,22M274,22L278,27M273,27L276,32M271,32L274,36M269,36L272,41M267,41L270,45M265,46L269,50M264,50L267,55M262,55L265,65M260,64L263,69M258,69L261,74M256,74L260,79M290,0L293,4M288,4L292,9M287,9L290,13M285,13L288,18M283,13L286,23M281,18L284,27M279,22L283,32M278,27L281,37M276,32L279,41M274,36L277,46M272,41L275,51M270,45L274,55M269,50L272,55M267,55L270,64M265,65L268,69M263,69L266,74M261,74L265,78M295,0L298,4M293,4L297,9M292,9L295,13M290,13L293,18M288,18L291,22M286,23L289,27M284,27L288,32M283,32L286,36M281,37L284,41M279,41L282,46M277,46L280,51M275,51L279,55M274,55L277,55M272,55L275,65M270,64L273,69M268,69L271,74M266,74L270,79M300,0L303,4M298,4L302,9M297,9L300,13M295,13L298,18M293,18L296,22M291,22L294,27M289,27L293,32M288,32L291,37M286,36L289,41M284,41L287,46M282,46L285,50M280,51L284,55M279,55L282,60M277,55L280,65M275,65L278,69M273,69L276,74M271,74L275,78M305,0L308,4M303,4L307,9M302,9L305,13M300,13L303,18M298,18L301,23M296,22L299,27M294,27L298,32M293,32L296,37M291,37L294,41M289,41L292,46M287,46L290,50M285,50L289,55M284,55L287,60M282,60L285,65M280,65L283,69M278,69L281,74M276,74L280,78M310,0L313,4M308,4L312,9M307,9L310,13M305,13L308,18M303,18L306,23M301,23L304,22M299,27L303,32M298,32L301,36M296,37L299,41M294,41L297,46M292,46L295,50M290,50L294,55M289,55L292,55M287,60L290,64M285,65L288,69M283,69L286,74M281,74L285,79M315,0L318,4M313,4L317,8M312,9L315,13M310,13L313,18M308,18L311,18M306,23L309,22M304,22L308,32M303,32L306,36M301,36L304,41M299,41L302,46M297,46L300,51M295,50L299,50M294,55L297,55M292,55L295,65M290,64L293,69M288,69L291,74M286,74L290,79M320,0L323,4M318,4L322,9M317,8L320,13M315,13L318,13M313,18L316,18M311,18L314,27M309,22L313,32M308,32L311,37M306,36L309,41M304,41L307,46M302,46L305,45M300,51L304,50M299,50L302,55M297,55L300,65M295,65L298,69M293,69L296,74M291,74L295,78M325,0L328,4M323,4L327,9M322,9L325,13M320,13L323,13M318,13L321,23M316,18L319,27M314,27L318,32M313,32L316,37M311,37L314,41M309,41L312,41M307,46L310,46M305,45L309,55M304,50L307,55M302,55L305,65M300,65L303,69M298,69L301,74M296,74L300,78M330,0L333,4M328,4L332,9M327,9L330,13M325,13L328,13M323,13L326,22M321,23L324,27M319,27L323,32M318,32L321,36M316,37L319,36M314,41L317,41M312,41L315,50M310,46L314,55M309,55L312,55M307,55L310,65M305,65L308,69M303,69L306,74M301,74L305,79M335,0L338,4M333,4L337,8M332,9L335,13M330,13L333,13M328,13L331,18M326,22L329,27M324,27L328,32M323,32L326,31M321,36L324,36M319,36L322,46M317,41L320,50M315,50L319,55M314,55L317,55M312,55L315,65M310,65L313,69M308,69L311,74M306,74L310,78M340,0L343,4M338,4L342,9M337,8L340,13M335,13L338,18M333,13L336,17M331,18L334,22M329,27L333,27M328,32L331,31M326,31L329,41M324,36L327,46M322,46L325,51M320,50L324,55M319,55L322,55M317,55L320,65M315,65L318,69M313,69L316,74M311,74L315,78M345,0L348,4M343,4L347,9M342,9L345,13M340,13L343,18M338,18L341,23M336,17L339,22M334,22L338,27M333,27L336,36M331,31L334,41M329,41L332,46M327,46L330,50M325,51L329,55M324,55L327,55M322,55L325,65M320,65L323,69M318,69L321,74M316,74L320,78M350,0L353,4M348,4L352,9M347,9L350,13M345,13L348,18M343,18L346,23M341,23L344,27M339,22L343,32M338,27L341,36M336,36L339,41M334,41L337,46M332,46L335,51M330,50L334,55M329,55L332,60M327,55L330,65M325,65L328,69M323,69L326,74M321,74L325,79M355,0L358,4M353,4L357,9M352,9L355,13M350,13L353,18M348,18L351,18M346,23L349,27M344,27L348,32M343,32L346,36M341,36L344,41M339,41L342,46M337,46L340,50M335,51L339,50M334,55L337,60M332,60L335,64M330,65L333,69M328,69L331,74M326,74L330,78M360,0L363,4M358,4L362,8M357,9L360,13M355,13L358,13M353,18L356,18M351,18L354,27M349,27L353,32M348,32L351,36M346,36L349,41M344,41L347,46M342,46L345,51M340,50L344,50M339,50L342,55M337,60L340,65M335,64L338,69M333,69L336,74M331,74L335,78M365,0L368,4M363,4L367,9M362,8L365,13M360,13L363,13M358,13L361,23M356,18L359,27M354,27L358,32M353,32L356,37M351,36L354,41M349,41L352,46M347,46L350,51M345,51L349,55M344,50L347,55M342,55L345,65M340,65L343,69M338,69L341,74M336,74L340,79M370,0L373,4M368,4L372,9M367,9L370,13M365,13L368,13M363,13L366,23M361,23L364,27M359,27L363,32M358,32L361,32M356,37L359,41M354,41L357,46M352,46L355,50M350,51L354,55M349,55L352,55M347,55L350,64M345,65L348,69M343,69L346,74M341,74L345,79M375,0L378,4M373,4L377,9M372,9L375,13M370,13L373,13M368,13L371,23M366,23L369,27M364,27L368,32M363,32L366,31M361,32L364,41M359,41L362,46M357,46L360,51M355,50L359,55M354,55L357,55M352,55L355,64M350,64L353,69M348,69L351,74M346,74L350,79M380,0L383,4M378,4L382,9M377,9L380,13M375,13L378,13M373,13L376,18M371,23L374,27M369,27L373,27M368,32L371,32M366,31L369,36M364,41L367,46M362,46L365,51M360,51L364,50M359,55L362,55M357,55L360,65M355,64L358,69M353,69L356,74M351,74L355,78M385,0L388,4M383,4L387,9M382,9L385,13M380,13L383,18M378,13L381,17M376,18L379,22M374,27L378,27M373,27L376,37M371,32L374,36M369,36L372,41M367,46L370,46M365,51L369,50M364,50L367,60M362,55L365,65M360,65L363,69M358,69L361,74M356,74L360,79M390,0L393,4M388,4L392,8M387,9L390,13M385,13L388,18M383,18L386,22M381,17L384,22M379,22L383,32M378,27L381,36M376,37L379,41M374,36L377,41M372,41L375,46M370,46L374,55M369,50L372,60M367,60L370,64M365,65L368,69M363,69L366,74M361,74L365,79M395,0L398,4M393,4L397,9M392,8L395,13M390,13L393,18M388,18L391,23M386,22L389,27M384,22L388,32M383,32L386,36M381,36L384,41M379,41L382,46M377,41L380,51M375,46L379,55M374,55L377,60M372,60L375,65M370,64L373,69M368,69L371,74M366,74L370,79M400,0L403,4M398,4L402,9M397,9L400,13M395,13L398,18M393,18L396,22M391,23L394,27M389,27L393,32M388,32L391,36M386,36L389,41M384,41L387,46M382,46L385,50M380,51L384,55M379,55L382,60M377,60L380,65M375,65L378,69M373,69L376,74M371,74L375,79M405,0L408,4M403,4L407,9M402,9L405,13M400,13L403,18M398,18L401,23M396,22L399,27M394,27L398,32M393,32L396,36M391,36L394,41M389,41L392,46M387,46L390,50M385,50L389,55M384,55L387,60M382,60L385,65M380,65L383,69M378,69L381,74M376,74L380,78M410,0L413,4M408,4L412,9M407,9L410,13M405,13L408,18M403,18L406,23M401,23L404,27M399,27L403,32M398,32L401,36M396,36L399,41M394,41L397,46M392,46L395,50M390,50L394,55M389,55L392,60M387,60L390,64M385,65L388,69M383,69L386,74M381,74L385,78"/>
</svg>